<svg width="512" height="512" viewBox="0 0 40 40" fill="none" xmlns="http://www.w3.org/2000/svg">
  <defs>
    <linearGradient id="ib-bg" x1="8" y1="6" x2="32" y2="36" gradientUnits="userSpaceOnUse">
      <stop stop-color="#1b570f"/>
      <stop offset="0.5" stop-color="#0d2c07"/>
      <stop offset="1" stop-color="#091f05"/>
    </linearGradient>
    <radialGradient id="ib-glow" cx="0" cy="0" r="1" gradientUnits="userSpaceOnUse" gradientTransform="translate(12 10) rotate(55) scale(28 24)">
      <stop stop-color="#69e151" stop-opacity="0.22"/>
      <stop offset="1" stop-color="#69e151" stop-opacity="0"/>
    </radialGradient>
    <linearGradient id="ib-ring" x1="4" y1="4" x2="36" y2="36" gradientUnits="userSpaceOnUse">
      <stop stop-color="#b4f0a8" stop-opacity="0.55"/>
      <stop offset="1" stop-color="#36ae1e" stop-opacity="0.35"/>
    </linearGradient>
    <linearGradient id="ib-b1" x1="11" y1="28" x2="11" y2="14" gradientUnits="userSpaceOnUse">
      <stop stop-color="#ffffff"/>
      <stop offset="1" stop-color="#d9f8d3"/>
    </linearGradient>
    <linearGradient id="ib-b2" x1="19.5" y1="30" x2="19.5" y2="12" gradientUnits="userSpaceOnUse">
      <stop stop-color="#b4f0a8"/>
      <stop offset="1" stop-color="#ffffff"/>
    </linearGradient>
    <linearGradient id="ib-b3" x1="28" y1="31" x2="28" y2="6" gradientUnits="userSpaceOnUse">
      <stop stop-color="#8ee97c"/>
      <stop offset="0.55" stop-color="#b4f0a8"/>
      <stop offset="1" stop-color="#ffffff"/>
    </linearGradient>
    <linearGradient id="ib-chev" x1="11" y1="12" x2="17" y2="7" gradientUnits="userSpaceOnUse">
      <stop stop-color="#b4f0a8"/>
      <stop offset="1" stop-color="#ecfbe9"/>
    </linearGradient>
    <clipPath id="ib-clip"><circle cx="20" cy="20" r="20"/></clipPath>
  </defs>
  <circle cx="20" cy="20" r="20" fill="url(#ib-bg)"/>
  <circle cx="20" cy="20" r="20" fill="url(#ib-glow)"/>
  <circle cx="20" cy="20" r="19.35" fill="none" stroke="url(#ib-ring)" stroke-width="0.65"/>
  <g clip-path="url(#ib-clip)">
    <rect x="9" y="22" width="5.5" height="9" rx="1.6" fill="url(#ib-b1)"/>
    <rect x="17.25" y="16" width="5.5" height="15" rx="1.6" fill="url(#ib-b2)"/>
    <rect x="25.5" y="10" width="5.5" height="21" rx="1.6" fill="url(#ib-b3)"/>
    <path d="M11 11.5L14 8.5L17 11.5" stroke="url(#ib-chev)" stroke-width="1.75" stroke-linecap="round" stroke-linejoin="round" fill="none"/>
    <circle cx="29.5" cy="11" r="1.15" fill="#8ee97c" fill-opacity="0.55"/>
  </g>
</svg>
